<svg width="29" height="28" viewBox="0 0 29 28" fill="none" xmlns="http://www.w3.org/2000/svg">
<mask id="path-1-inside-1_2009_338" fill="white">
<path fill-rule="evenodd" clip-rule="evenodd" d="M6.63584 20.4187C8.03707 20.9925 9.59063 21.3116 11.2259 21.3116C17.4257 21.3116 22.4517 16.7241 22.4517 11.0652C22.4517 5.40621 17.4257 0.818726 11.2259 0.818726C5.02601 0.818726 4.76837e-05 5.40621 4.76837e-05 11.0652C4.76837e-05 13.461 0.900953 15.6649 2.41043 17.4098L0.600611 22.3023C0.340092 23.0065 1.10611 23.6491 1.75465 23.2703L6.6075 20.436C6.61712 20.4304 6.62656 20.4246 6.63584 20.4187Z"/>
</mask>
<path d="M6.63584 20.4187L5.55911 18.7333L6.43349 18.1747L7.3937 18.5679L6.63584 20.4187ZM2.41043 17.4098L3.92301 16.1013L4.69626 16.9952L4.2862 18.1037L2.41043 17.4098ZM0.600611 22.3023L2.47638 22.9961L2.47638 22.9961L0.600611 22.3023ZM1.75465 23.2703L0.745991 21.5433L1.75465 23.2703ZM6.6075 20.436L7.61618 22.163L7.61615 22.1631L6.6075 20.436ZM11.2259 23.3116C9.32947 23.3116 7.51858 22.9413 5.87799 22.2696L7.3937 18.5679C8.55556 19.0436 9.85179 19.3116 11.2259 19.3116V23.3116ZM24.4517 11.0652C24.4517 17.9966 18.3545 23.3116 11.2259 23.3116V19.3116C16.4969 19.3116 20.4517 15.4516 20.4517 11.0652H24.4517ZM11.2259 -1.18127C18.3545 -1.18127 24.4517 4.13372 24.4517 11.0652H20.4517C20.4517 6.67869 16.4969 2.81873 11.2259 2.81873V-1.18127ZM-1.99995 11.0652C-1.99995 4.13372 4.09719 -1.18127 11.2259 -1.18127V2.81873C5.95483 2.81873 2.00005 6.67869 2.00005 11.0652H-1.99995ZM0.897852 18.7183C-0.901453 16.6383 -1.99995 13.9779 -1.99995 11.0652H2.00005C2.00005 12.9442 2.70336 14.6914 3.92301 16.1013L0.897852 18.7183ZM4.2862 18.1037L2.47638 22.9961L-1.27516 21.6084L0.534657 16.7159L4.2862 18.1037ZM2.47638 22.9961C2.86798 21.9375 1.71675 20.9763 0.745991 21.5433L2.7633 24.9973C0.49548 26.3218 -2.1878 24.0755 -1.27516 21.6084L2.47638 22.9961ZM0.745991 21.5433L5.59884 18.709L7.61615 22.1631L2.7633 24.9973L0.745991 21.5433ZM5.59882 18.709C5.58516 18.717 5.57192 18.7251 5.55911 18.7333L7.71257 22.1041C7.68121 22.1242 7.64908 22.1438 7.61618 22.163L5.59882 18.709Z" fill="#6D7691" mask="url(#path-1-inside-1_2009_338)"/>
<mask id="path-3-inside-2_2009_338" fill="white">
<path fill-rule="evenodd" clip-rule="evenodd" d="M22.3642 24.1606C20.9629 24.7344 19.4094 25.0535 17.7741 25.0535C11.5743 25.0535 6.54834 20.466 6.54834 14.8071C6.54834 9.14815 11.5743 4.56067 17.7741 4.56067C23.974 4.56067 29 9.14815 29 14.8071C29 17.203 28.099 19.4068 26.5896 21.1517L28.3994 26.0442C28.6599 26.7484 27.8939 27.391 27.2454 27.0122L22.3925 24.178C22.3829 24.1724 22.3734 24.1666 22.3642 24.1606Z"/>
</mask>
<path fill-rule="evenodd" clip-rule="evenodd" d="M22.3642 24.1606C20.9629 24.7344 19.4094 25.0535 17.7741 25.0535C11.5743 25.0535 6.54834 20.466 6.54834 14.8071C6.54834 9.14815 11.5743 4.56067 17.7741 4.56067C23.974 4.56067 29 9.14815 29 14.8071C29 17.203 28.099 19.4068 26.5896 21.1517L28.3994 26.0442C28.6599 26.7484 27.8939 27.391 27.2454 27.0122L22.3925 24.178C22.3829 24.1724 22.3734 24.1666 22.3642 24.1606Z" fill="#111E4F"/>
<path d="M22.3642 24.1606L23.4409 22.4752L22.5665 21.9166L21.6063 22.3098L22.3642 24.1606ZM26.5896 21.1517L25.077 19.8433L24.3037 20.7371L24.7138 21.8456L26.5896 21.1517ZM28.3994 26.0442L26.5236 26.7381L26.5236 26.7381L28.3994 26.0442ZM27.2454 27.0122L28.254 25.2852L27.2454 27.0122ZM22.3925 24.178L23.4012 22.4509L23.4011 22.4509L22.3925 24.178ZM17.7741 27.0535C19.6705 27.0535 21.4814 26.6833 23.122 26.0115L21.6063 22.3098C20.4444 22.7855 19.1482 23.0535 17.7741 23.0535V27.0535ZM4.54834 14.8071C4.54834 21.7385 10.6455 27.0535 17.7741 27.0535V23.0535C12.5031 23.0535 8.54834 19.1936 8.54834 14.8071H4.54834ZM17.7741 2.56067C10.6455 2.56067 4.54834 7.87567 4.54834 14.8071H8.54834C8.54834 10.4206 12.5031 6.56067 17.7741 6.56067V2.56067ZM31 14.8071C31 7.87567 24.9028 2.56067 17.7741 2.56067V6.56067C23.0452 6.56067 27 10.4206 27 14.8071H31ZM28.1021 22.4602C29.9015 20.3802 31 17.7198 31 14.8071H27C27 16.6862 26.2966 18.4334 25.077 19.8433L28.1021 22.4602ZM24.7138 21.8456L26.5236 26.7381L30.2752 25.3503L28.4653 20.4579L24.7138 21.8456ZM26.5236 26.7381C26.132 25.6795 27.2833 24.7183 28.254 25.2852L26.2367 28.7393C28.5045 30.0638 31.1878 27.8174 30.2752 25.3503L26.5236 26.7381ZM28.254 25.2852L23.4012 22.4509L21.3838 25.905L26.2367 28.7393L28.254 25.2852ZM23.4011 22.4509C23.4149 22.459 23.4281 22.4671 23.4409 22.4752L21.2874 25.8461C21.3187 25.8661 21.3509 25.8857 21.3839 25.905L23.4011 22.4509Z" fill="#6D7691" mask="url(#path-3-inside-2_2009_338)"/>
<circle cx="17.6806" cy="14.7575" r="0.841935" fill="#6D7691"/>
<circle cx="13.9386" cy="14.7575" r="0.841935" fill="#6D7691"/>
<circle cx="21.4225" cy="14.7575" r="0.841935" fill="#6D7691"/>
</svg>
