<svg width="23" height="24" viewBox="0 0 23 24" fill="currentColor" xmlns="http://www.w3.org/2000/svg">
<mask id="path-1-inside-1_2009_376" fill="currentColor">
<path fill-rule="evenodd" clip-rule="evenodd" d="M23 8.52701C22.9999 8.52701 22.9999 8.52701 22.9999 8.527L12.4197 0.315044C11.8785 -0.105015 11.1215 -0.105015 10.5803 0.315044L6.9389e-05 8.527C6.18443e-05 8.52701 5.25653e-05 8.52701 4.30147e-05 8.52701C1.92583e-05 8.52701 0 8.52703 0 8.52705V8.52706V21.5315C0 22.36 0.671573 23.0315 1.5 23.0315H21.5C22.3284 23.0315 23 22.36 23 21.5315V8.52706V8.52705C23 8.52703 23 8.52701 23 8.52701Z" fill="currentColor"/>
</mask>
<path d="M6.9389e-05 8.527L-1.22622 6.94706L6.9389e-05 8.527ZM22.9999 8.527L21.7736 10.1069L22.9999 8.527ZM12.4197 0.315044L11.1934 1.89499L12.4197 0.315044ZM11.1934 1.89499L21.7736 10.1069L24.2262 6.94706L13.646 -1.2649L11.1934 1.89499ZM1.22636 10.1069L11.8066 1.89499L9.35399 -1.2649L-1.22622 6.94706L1.22636 10.1069ZM2 8.52706V8.52705H-2V8.52706H2ZM2 21.5315V8.52706H-2V21.5315H2ZM21.5 21.0315H1.5V25.0315H21.5V21.0315ZM21 8.52706V21.5315H25V8.52706H21ZM21 8.52705V8.52706H25V8.52705H21ZM25 8.52705C25 7.42246 24.1046 6.52701 23 6.52701V10.527C21.8954 10.527 21 9.6316 21 8.52705H25ZM21.5 25.0315C23.433 25.0315 25 23.4645 25 21.5315H21C21 21.2554 21.2239 21.0315 21.5 21.0315V25.0315ZM4.30147e-05 6.52701C-1.10455 6.52701 -2 7.42246 -2 8.52705H2C2 9.6316 1.10459 10.527 4.30147e-05 10.527V6.52701ZM-1.22622 6.94706C-0.875433 6.67479 -0.444009 6.52701 4.30147e-05 6.52701V10.527C0.444114 10.527 0.875557 10.3792 1.22636 10.1069L-1.22622 6.94706ZM21.7736 10.1069C22.1526 10.4011 22.5929 10.527 23 10.527V6.52701C23.407 6.52701 23.8472 6.65291 24.2262 6.94706L21.7736 10.1069ZM-2 21.5315C-2 23.4645 -0.432997 25.0315 1.5 25.0315V21.0315C1.77614 21.0315 2 21.2554 2 21.5315H-2ZM13.646 -1.2649C12.3832 -2.24503 10.6168 -2.24503 9.35399 -1.2649L11.8066 1.89499C11.6262 2.035 11.3738 2.03501 11.1934 1.89499L13.646 -1.2649Z" fill="currentColor" mask="url(#path-1-inside-1_2009_376)"/>
<path fill-rule="evenodd" clip-rule="evenodd" d="M11.8334 13.5792H11.1667C10.0622 13.5792 9.16675 14.4747 9.16675 15.5792V21.5751H7.66675V15.5792C7.66675 13.6462 9.23375 12.0792 11.1667 12.0792H11.8334C13.7664 12.0792 15.3334 13.6462 15.3334 15.5792V21.5751H13.8334V15.5792C13.8334 14.4747 12.938 13.5792 11.8334 13.5792Z" fill="currentColor"/>
</svg>
