<svg width="25" height="26" viewBox="0 0 25 26" fill="none" xmlns="http://www.w3.org/2000/svg">
<mask id="path-1-inside-1_6288_799" fill="white">
<path fill-rule="evenodd" clip-rule="evenodd" d="M24.9999 9.26849C24.9999 9.26849 24.9999 9.26848 24.9999 9.26848L13.4997 0.342441C12.9114 -0.114145 12.0886 -0.114146 11.5003 0.34244L8.41525e-05 9.26848C7.50026e-05 9.26848 6.37494e-05 9.26849 5.21668e-05 9.26849C2.33559e-05 9.26849 0 9.26851 0 9.26854V9.26854V23.4038C0 24.3043 0.72997 25.0343 1.63043 25.0343H23.3696C24.27 25.0343 25 24.3043 25 23.4038V9.26854V9.26854C25 9.26851 25 9.26849 24.9999 9.26849Z"/>
</mask>
<path d="M8.41525e-05 9.26848L-1.33284 7.55115L8.41525e-05 9.26848ZM24.9999 9.26848L26.3328 7.55115L24.9999 9.26848ZM11.5003 0.34244L10.1674 -1.37489L11.5003 0.34244ZM12.1668 2.05977L23.667 10.9858L26.3328 7.55115L14.8326 -1.37489L12.1668 2.05977ZM1.33301 10.9858L12.8332 2.05977L10.1674 -1.37489L-1.33284 7.55115L1.33301 10.9858ZM2.17391 9.26854V9.26854H-2.17391V9.26854H2.17391ZM2.17391 23.4038V9.26854H-2.17391V23.4038H2.17391ZM23.3696 22.8604H1.63043V27.2082H23.3696V22.8604ZM22.8261 9.26854V23.4038H27.1739V9.26854H22.8261ZM22.8261 9.26854V9.26854H27.1739V9.26854H22.8261ZM27.1739 9.26854C27.1739 8.06789 26.2006 7.09457 24.9999 7.09457V11.4424C23.7994 11.4424 22.8261 10.4691 22.8261 9.26854H27.1739ZM23.3696 27.2082C25.4706 27.2082 27.1739 25.5049 27.1739 23.4038H22.8261C22.8261 23.1037 23.0694 22.8604 23.3696 22.8604V27.2082ZM5.21668e-05 7.09457C-1.20059 7.09457 -2.17391 8.06789 -2.17391 9.26854H2.17391C2.17391 10.4691 1.20064 11.4424 5.21668e-05 11.4424V7.09457ZM-1.33284 7.55115C-0.951549 7.25521 -0.482611 7.09457 5.21668e-05 7.09457V11.4424C0.482739 11.4424 0.951699 11.2818 1.33301 10.9858L-1.33284 7.55115ZM23.667 10.9858C24.0512 11.284 24.521 11.4424 24.9999 11.4424V7.09457C25.4789 7.09457 25.9486 7.25292 26.3328 7.55115L23.667 10.9858ZM-2.17391 23.4038C-2.17391 25.5049 -0.470649 27.2082 1.63043 27.2082V22.8604C1.93059 22.8604 2.17391 23.1037 2.17391 23.4038H-2.17391ZM14.8326 -1.37489C13.46 -2.44025 11.54 -2.44026 10.1674 -1.37489L12.8332 2.05977C12.6371 2.21196 12.3629 2.21196 12.1668 2.05977L14.8326 -1.37489Z" fill="currentColor" mask="url(#path-1-inside-1_6288_799)"/>
<mask id="path-3-inside-2_6288_799" fill="white">
<path fill-rule="evenodd" clip-rule="evenodd" d="M12.8624 14.76H12.1377C10.9371 14.76 9.96381 15.7333 9.96381 16.9339V23.4512H8.33342V24.9604V25.0816V25.5038H8.33337V23.8734V16.9339C8.33337 14.8329 10.0366 13.1296 12.1377 13.1296H12.8624C14.9634 13.1296 16.6667 14.8329 16.6667 16.9339V23.4512H15.0363V16.9339C15.0363 15.7333 14.063 14.76 12.8624 14.76Z"/>
</mask>
<path fill-rule="evenodd" clip-rule="evenodd" d="M12.8624 14.76H12.1377C10.9371 14.76 9.96381 15.7333 9.96381 16.9339V23.4512H8.33342V24.9604V25.0816V25.5038H8.33337V23.8734V16.9339C8.33337 14.8329 10.0366 13.1296 12.1377 13.1296H12.8624C14.9634 13.1296 16.6667 14.8329 16.6667 16.9339V23.4512H15.0363V16.9339C15.0363 15.7333 14.063 14.76 12.8624 14.76Z" fill="currentColor"/>
<path d="M9.96381 23.4512V25.6251H12.1377V23.4512H9.96381ZM8.33342 23.4512V21.2773H6.15951V23.4512H8.33342ZM8.33342 25.5038V27.6777H10.5073V25.5038H8.33342ZM8.33337 25.5038H6.15946V27.6777H8.33337V25.5038ZM16.6667 23.4512V25.6251H18.8406V23.4512H16.6667ZM15.0363 23.4512H12.8624V25.6251H15.0363V23.4512ZM12.1377 16.9339H12.8624V12.5861H12.1377V16.9339ZM12.1377 16.9339L12.1377 16.9339V12.5861C9.73648 12.5861 7.7899 14.5327 7.7899 16.9339H12.1377ZM12.1377 23.4512V16.9339H7.7899V23.4512H12.1377ZM8.33342 25.6251H9.96381V21.2773H8.33342V25.6251ZM10.5073 24.9604V23.4512H6.15951V24.9604H10.5073ZM10.5073 25.0816V24.9604H6.15951V25.0816H10.5073ZM10.5073 25.5038V25.0816H6.15951V25.5038H10.5073ZM8.33337 27.6777H8.33342V23.3299H8.33337V27.6777ZM6.15946 23.8734V25.5038H10.5073V23.8734H6.15946ZM6.15946 16.9339V23.8734H10.5073V16.9339H6.15946ZM12.1377 10.9557C8.83602 10.9557 6.15946 13.6322 6.15946 16.9339H10.5073C10.5073 16.0335 11.2373 15.3035 12.1377 15.3035V10.9557ZM12.8624 10.9557H12.1377V15.3035H12.8624V10.9557ZM18.8406 16.9339C18.8406 13.6322 16.1641 10.9557 12.8624 10.9557V15.3035C13.7628 15.3035 14.4928 16.0335 14.4928 16.9339H18.8406ZM18.8406 23.4512V16.9339H14.4928V23.4512H18.8406ZM15.0363 25.6251H16.6667V21.2773H15.0363V25.6251ZM12.8624 16.9339V23.4512H17.2102V16.9339H12.8624ZM12.8624 16.9339L12.8624 16.9339H17.2102C17.2102 14.5327 15.2636 12.5861 12.8624 12.5861V16.9339Z" fill="currentColor" mask="url(#path-3-inside-2_6288_799)"/>
</svg>
