<svg width="26" height="26" viewBox="0 0 26 26" fill="none" xmlns="http://www.w3.org/2000/svg">
<path fill-rule="evenodd" clip-rule="evenodd" d="M13.0001 2.36364C10.011 2.36364 7.58782 4.74467 7.58782 7.68182C7.58782 10.619 10.011 13 13.0001 13C15.9892 13 18.4123 10.619 18.4123 7.68182C18.4123 4.74467 15.9892 2.36364 13.0001 2.36364ZM5.18237 7.68182C5.18237 3.43927 8.68247 0 13.0001 0C17.3177 0 20.8178 3.43927 20.8178 7.68182C20.8178 11.9244 17.3177 15.3636 13.0001 15.3636C8.68247 15.3636 5.18237 11.9244 5.18237 7.68182Z" fill="currentColor"/>
<path fill-rule="evenodd" clip-rule="evenodd" d="M13 15.3636C7.75015 15.3636 3.48806 18.6047 2.43192 22.7635C2.37848 22.974 2.43198 23.1572 2.5851 23.3196C2.75272 23.4974 3.03813 23.6364 3.37823 23.6364H22.6218C22.9619 23.6364 23.2473 23.4974 23.4149 23.3196C23.568 23.1572 23.6215 22.974 23.5681 22.7635C22.5119 18.6047 18.2498 15.3636 13 15.3636ZM0.098042 22.1913C1.45349 16.8538 6.78374 13 13 13C19.2163 13 24.5465 16.8538 25.902 22.1913C26.4642 24.4054 24.5065 26 22.6218 26H3.37823C1.49349 26 -0.464222 24.4054 0.098042 22.1913Z" fill="currentColor"/>
</svg>
